<?xml version="1.0" encoding="UTF-8"?>
<svg  xmlns="http://www.w3.org/2000/svg" viewBox="0 0 30 39.77">
    <defs>
        <style>
            .cls-1 {
            fill: #fff;
            stroke-width: 0px;
            }
        </style>
    </defs>
    <path class="cls-1" d="M7.5,3.14v16.5l-1.69-2.65c-.4-.63-.77-1.2-1.26-1.64-.49-.43-1.12-.7-1.87-.7-.94,0-1.66.37-2.09.9-.43.53-.59,1.16-.59,1.72,0,7.88,5.13,14.03,10.71,19.56v2.42c0,.14.06.27.16.37.1.1.24.15.38.15h15c.14,0,.28-.06.38-.15.1-.1.16-.23.16-.37v-4.53c1.85-1.85,2.92-4.44,3.21-6.93,0-.02,0-.03,0-.05v-7.33c0-1.73-1.44-3.14-3.21-3.14-.83,0-1.57.33-2.14.83v-.31c0-1.73-1.44-3.14-3.21-3.14-.83,0-1.57.33-2.14.83v-.31c0-1.73-1.44-3.14-3.21-3.14-.83,0-1.57.33-2.14.83V3.14M13.93,3.14c0-1.73-1.44-3.14-3.21-3.14s-3.21,1.41-3.21,3.14M28.93,27.67c-.28,2.37-1.31,4.85-3.05,6.49-.05.05-.09.11-.12.17-.03.06-.04.13-.04.2v4.19h-13.93v-2.09c0-.07-.01-.14-.04-.2-.03-.06-.06-.12-.11-.17C6.04,30.74,1.07,24.77,1.07,17.27c0-.36.11-.77.35-1.06s.58-.51,1.26-.51c.51,0,.82.14,1.16.44s.68.79,1.07,1.41l2.68,4.19c.06.1.15.17.26.21.11.04.23.04.34.01.11-.03.21-.1.28-.19s.11-.2.11-.31V3.14c0-1.17.95-2.09,2.14-2.09s2.14.92,2.14,2.09v12.03c0,.29.24.52.54.52s.54-.23.54-.52c0-1.17.95-2.09,2.14-2.09s2.14.92,2.14,2.09v2.62c0,.29.24.52.54.52s.54-.23.54-.52c0-1.17.95-2.09,2.14-2.09s2.14.92,2.14,2.09v2.62c0,.29.24.52.54.52s.54-.23.54-.52c0-1.17.95-2.09,2.14-2.09s2.14.92,2.14,2.09v7.26Z"/>
</svg>