<svg width="265" height="16" viewBox="0 0 265 16" fill="none" xmlns="http://www.w3.org/2000/svg">
<path d="M9.88863 0.575999V10.72H11.3446V15.008H9.96863V12H2.11263V15.008H0.736625V10.72H1.61663C2.00063 10.0587 2.36329 9.31733 2.70463 8.496C3.05663 7.67467 3.36596 6.816 3.63263 5.92C3.89929 5.01333 4.11796 4.10667 4.28863 3.2C4.45929 2.29333 4.56596 1.41867 4.60863 0.575999H9.88863ZM5.87263 1.872C5.82996 2.49067 5.72329 3.18933 5.55263 3.968C5.39263 4.74667 5.18463 5.54667 4.92863 6.368C4.68329 7.17867 4.40596 7.96267 4.09663 8.72C3.79796 9.47733 3.47796 10.144 3.13663 10.72H8.46463V1.872H5.87263ZM19.5911 12H18.1671V4.592H15.6391C15.5325 5.94667 15.3991 7.104 15.2391 8.064C15.0791 9.01333 14.8765 9.78667 14.6311 10.384C14.3858 10.9813 14.0925 11.4187 13.7511 11.696C13.4098 11.9733 13.0098 12.112 12.5511 12.112C12.4125 12.112 12.2738 12.1013 12.1351 12.08C12.0071 12.0693 11.9005 12.0427 11.8151 12V10.944C11.8791 10.9653 11.9485 10.9813 12.0231 10.992C12.0978 11.0027 12.1725 11.008 12.2471 11.008C12.4818 11.008 12.6951 10.912 12.8871 10.72C13.0791 10.528 13.2498 10.2347 13.3991 9.84C13.5591 9.44533 13.7031 8.94933 13.8311 8.352C13.9591 7.744 14.0711 7.02933 14.1671 6.208C14.2631 5.38667 14.3485 4.45867 14.4231 3.424H19.5911V12ZM22.8411 12H21.2091L23.6571 8.4C23.3265 8.31467 23.0065 8.18133 22.6971 8C22.3878 7.808 22.1371 7.54667 21.9451 7.216C21.7531 6.87467 21.6571 6.45333 21.6571 5.952C21.6571 5.13067 21.9345 4.50667 22.4891 4.08C23.0438 3.64267 23.7798 3.424 24.6971 3.424H28.5371V12H27.1291V8.592H25.0491L22.8411 12ZM23.0171 5.968C23.0171 6.45867 23.1985 6.82667 23.5611 7.072C23.9345 7.30667 24.4518 7.424 25.1131 7.424H27.1291V4.592H24.8411C24.1905 4.592 23.7211 4.72 23.4331 4.976C23.1558 5.232 23.0171 5.56267 23.0171 5.968ZM43.9518 3.424V12H42.5438V4.624H38.1118V12H36.7038V3.424H43.9518ZM50.7681 3.264C51.8241 3.264 52.6721 3.632 53.3121 4.368C53.9628 5.104 54.2881 6.21333 54.2881 7.696C54.2881 8.66667 54.1388 9.488 53.8401 10.16C53.5521 10.8213 53.1415 11.3227 52.6081 11.664C52.0855 11.9947 51.4668 12.16 50.7521 12.16C50.3148 12.16 49.9255 12.1013 49.5841 11.984C49.2428 11.8667 48.9495 11.7173 48.7041 11.536C48.4695 11.344 48.2668 11.136 48.0961 10.912H48.0001C48.0215 11.0933 48.0428 11.3227 48.0641 11.6C48.0855 11.8773 48.0961 12.1173 48.0961 12.32V15.84H46.6881V3.424H47.8401L48.0321 4.592H48.0961C48.2668 4.34667 48.4695 4.12267 48.7041 3.92C48.9495 3.71733 49.2375 3.55733 49.5681 3.44C49.9095 3.32267 50.3095 3.264 50.7681 3.264ZM50.5121 4.448C49.9361 4.448 49.4721 4.56 49.1201 4.784C48.7681 4.99733 48.5121 5.32267 48.3521 5.76C48.1921 6.19733 48.1068 6.752 48.0961 7.424V7.696C48.0961 8.4 48.1708 8.99733 48.3201 9.488C48.4695 9.97867 48.7201 10.352 49.0721 10.608C49.4348 10.864 49.9255 10.992 50.5441 10.992C51.0668 10.992 51.4935 10.848 51.8241 10.56C52.1655 10.272 52.4161 9.88267 52.5761 9.392C52.7468 8.89067 52.8321 8.32 52.8321 7.68C52.8321 6.69867 52.6401 5.91467 52.2561 5.328C51.8828 4.74133 51.3015 4.448 50.5121 4.448ZM63.9879 7.696C63.9879 8.41067 63.8919 9.04533 63.6999 9.6C63.5185 10.144 63.2519 10.608 62.8999 10.992C62.5585 11.376 62.1372 11.6693 61.6359 11.872C61.1452 12.064 60.5959 12.16 59.9879 12.16C59.4225 12.16 58.8999 12.064 58.4199 11.872C57.9399 11.6693 57.5239 11.376 57.1719 10.992C56.8199 10.608 56.5425 10.144 56.3399 9.6C56.1479 9.04533 56.0519 8.41067 56.0519 7.696C56.0519 6.74667 56.2119 5.94667 56.5319 5.296C56.8519 4.63467 57.3105 4.13333 57.9079 3.792C58.5052 3.44 59.2145 3.264 60.0359 3.264C60.8145 3.264 61.4972 3.44 62.0839 3.792C62.6812 4.13333 63.1452 4.63467 63.4759 5.296C63.8172 5.94667 63.9879 6.74667 63.9879 7.696ZM57.5079 7.696C57.5079 8.368 57.5932 8.95467 57.7639 9.456C57.9452 9.94667 58.2225 10.3253 58.5959 10.592C58.9692 10.8587 59.4439 10.992 60.0199 10.992C60.5959 10.992 61.0705 10.8587 61.4439 10.592C61.8172 10.3253 62.0892 9.94667 62.2599 9.456C62.4412 8.95467 62.5319 8.368 62.5319 7.696C62.5319 7.01333 62.4412 6.432 62.2599 5.952C62.0785 5.472 61.8012 5.104 61.4279 4.848C61.0652 4.58133 60.5905 4.448 60.0039 4.448C59.1292 4.448 58.4945 4.736 58.0999 5.312C57.7052 5.888 57.5079 6.68267 57.5079 7.696ZM69.6594 12.16C68.902 12.16 68.2247 12.0053 67.6274 11.696C67.0407 11.3867 66.5767 10.9067 66.2354 10.256C65.9047 9.60533 65.7394 8.77333 65.7394 7.76C65.7394 6.704 65.9154 5.84533 66.2674 5.184C66.6194 4.52267 67.094 4.03733 67.6914 3.728C68.2994 3.41867 68.9874 3.264 69.7554 3.264C70.1927 3.264 70.614 3.312 71.0194 3.408C71.4247 3.49333 71.7554 3.6 72.0114 3.728L71.5794 4.896C71.3234 4.8 71.0247 4.70933 70.6834 4.624C70.342 4.53867 70.022 4.496 69.7234 4.496C69.1474 4.496 68.6727 4.61867 68.2994 4.864C67.926 5.10933 67.6487 5.472 67.4674 5.952C67.286 6.432 67.1954 7.02933 67.1954 7.744C67.1954 8.42667 67.286 9.008 67.4674 9.488C67.6487 9.968 67.9207 10.3307 68.2834 10.576C68.646 10.8213 69.0994 10.944 69.6434 10.944C70.1127 10.944 70.5234 10.896 70.8754 10.8C71.238 10.704 71.5687 10.5867 71.8674 10.448V11.696C71.5794 11.8453 71.2594 11.9573 70.9074 12.032C70.566 12.1173 70.15 12.16 69.6594 12.16ZM83.1069 3.424V12H81.8429V6.528C81.8429 6.304 81.8482 6.06933 81.8589 5.824C81.8802 5.57867 81.9015 5.33867 81.9229 5.104H81.8749L79.0749 12H77.8909L75.1709 5.104H75.1229C75.1442 5.33867 75.1549 5.57867 75.1549 5.824C75.1655 6.06933 75.1709 6.32 75.1709 6.576V12H73.9069V3.424H75.7789L78.4829 10.32L81.2349 3.424H83.1069ZM93.3004 7.696C93.3004 8.41067 93.2044 9.04533 93.0124 9.6C92.831 10.144 92.5644 10.608 92.2124 10.992C91.871 11.376 91.4497 11.6693 90.9484 11.872C90.4577 12.064 89.9084 12.16 89.3004 12.16C88.735 12.16 88.2124 12.064 87.7324 11.872C87.2524 11.6693 86.8364 11.376 86.4844 10.992C86.1324 10.608 85.855 10.144 85.6524 9.6C85.4604 9.04533 85.3644 8.41067 85.3644 7.696C85.3644 6.74667 85.5244 5.94667 85.8444 5.296C86.1644 4.63467 86.623 4.13333 87.2204 3.792C87.8177 3.44 88.527 3.264 89.3484 3.264C90.127 3.264 90.8097 3.44 91.3964 3.792C91.9937 4.13333 92.4577 4.63467 92.7884 5.296C93.1297 5.94667 93.3004 6.74667 93.3004 7.696ZM86.8204 7.696C86.8204 8.368 86.9057 8.95467 87.0764 9.456C87.2577 9.94667 87.535 10.3253 87.9084 10.592C88.2817 10.8587 88.7564 10.992 89.3324 10.992C89.9084 10.992 90.383 10.8587 90.7564 10.592C91.1297 10.3253 91.4017 9.94667 91.5724 9.456C91.7537 8.95467 91.8444 8.368 91.8444 7.696C91.8444 7.01333 91.7537 6.432 91.5724 5.952C91.391 5.472 91.1137 5.104 90.7404 4.848C90.3777 4.58133 89.903 4.448 89.3164 4.448C88.4417 4.448 87.807 4.736 87.4124 5.312C87.0177 5.888 86.8204 6.68267 86.8204 7.696ZM101.296 4.608H98.4956V12H97.1036V4.608H94.3356V3.424H101.296V4.608ZM107.065 3.264C108.121 3.264 108.969 3.632 109.609 4.368C110.26 5.104 110.585 6.21333 110.585 7.696C110.585 8.66667 110.436 9.488 110.137 10.16C109.849 10.8213 109.438 11.3227 108.905 11.664C108.382 11.9947 107.764 12.16 107.049 12.16C106.612 12.16 106.222 12.1013 105.881 11.984C105.54 11.8667 105.246 11.7173 105.001 11.536C104.766 11.344 104.564 11.136 104.393 10.912H104.297C104.318 11.0933 104.34 11.3227 104.361 11.6C104.382 11.8773 104.393 12.1173 104.393 12.32V15.84H102.985V3.424H104.137L104.329 4.592H104.393C104.564 4.34667 104.766 4.12267 105.001 3.92C105.246 3.71733 105.534 3.55733 105.865 3.44C106.206 3.32267 106.606 3.264 107.065 3.264ZM106.809 4.448C106.233 4.448 105.769 4.56 105.417 4.784C105.065 4.99733 104.809 5.32267 104.649 5.76C104.489 6.19733 104.404 6.752 104.393 7.424V7.696C104.393 8.4 104.468 8.99733 104.617 9.488C104.766 9.97867 105.017 10.352 105.369 10.608C105.732 10.864 106.222 10.992 106.841 10.992C107.364 10.992 107.79 10.848 108.121 10.56C108.462 10.272 108.713 9.88267 108.873 9.392C109.044 8.89067 109.129 8.32 109.129 7.68C109.129 6.69867 108.937 5.91467 108.553 5.328C108.18 4.74133 107.598 4.448 106.809 4.448ZM116.077 3.28C117.122 3.28 117.895 3.50933 118.397 3.968C118.898 4.42667 119.149 5.15733 119.149 6.16V12H118.125L117.853 10.784H117.789C117.543 11.0933 117.287 11.3547 117.021 11.568C116.765 11.7707 116.466 11.92 116.125 12.016C115.794 12.112 115.389 12.16 114.909 12.16C114.397 12.16 113.933 12.0693 113.517 11.888C113.111 11.7067 112.791 11.4293 112.557 11.056C112.322 10.672 112.205 10.192 112.205 9.616C112.205 8.76267 112.541 8.10667 113.213 7.648C113.885 7.17867 114.919 6.92267 116.317 6.88L117.773 6.832V6.32C117.773 5.60533 117.618 5.10933 117.309 4.832C116.999 4.55467 116.562 4.416 115.997 4.416C115.549 4.416 115.122 4.48533 114.717 4.624C114.311 4.752 113.933 4.90133 113.581 5.072L113.149 4.016C113.522 3.81333 113.965 3.64267 114.477 3.504C114.989 3.35467 115.522 3.28 116.077 3.28ZM116.493 7.856C115.426 7.89867 114.685 8.06933 114.269 8.368C113.863 8.66667 113.661 9.088 113.661 9.632C113.661 10.112 113.805 10.464 114.093 10.688C114.391 10.912 114.77 11.024 115.229 11.024C115.954 11.024 116.557 10.8267 117.037 10.432C117.517 10.0267 117.757 9.408 117.757 8.576V7.808L116.493 7.856ZM132.323 3.424H133.859L130.195 7.552L134.163 12H132.531L128.659 7.648V12H127.251V3.424H128.659V7.584L132.323 3.424ZM142.863 7.696C142.863 8.41067 142.767 9.04533 142.575 9.6C142.394 10.144 142.127 10.608 141.775 10.992C141.434 11.376 141.012 11.6693 140.511 11.872C140.02 12.064 139.471 12.16 138.863 12.16C138.298 12.16 137.775 12.064 137.295 11.872C136.815 11.6693 136.399 11.376 136.047 10.992C135.695 10.608 135.418 10.144 135.215 9.6C135.023 9.04533 134.927 8.41067 134.927 7.696C134.927 6.74667 135.087 5.94667 135.407 5.296C135.727 4.63467 136.186 4.13333 136.783 3.792C137.38 3.44 138.09 3.264 138.911 3.264C139.69 3.264 140.372 3.44 140.959 3.792C141.556 4.13333 142.02 4.63467 142.351 5.296C142.692 5.94667 142.863 6.74667 142.863 7.696ZM136.383 7.696C136.383 8.368 136.468 8.95467 136.639 9.456C136.82 9.94667 137.098 10.3253 137.471 10.592C137.844 10.8587 138.319 10.992 138.895 10.992C139.471 10.992 139.946 10.8587 140.319 10.592C140.692 10.3253 140.964 9.94667 141.135 9.456C141.316 8.95467 141.407 8.368 141.407 7.696C141.407 7.01333 141.316 6.432 141.135 5.952C140.954 5.472 140.676 5.104 140.303 4.848C139.94 4.58133 139.466 4.448 138.879 4.448C138.004 4.448 137.37 4.736 136.975 5.312C136.58 5.888 136.383 6.68267 136.383 7.696ZM148.534 12.16C147.777 12.16 147.1 12.0053 146.502 11.696C145.916 11.3867 145.452 10.9067 145.11 10.256C144.78 9.60533 144.614 8.77333 144.614 7.76C144.614 6.704 144.79 5.84533 145.142 5.184C145.494 4.52267 145.969 4.03733 146.566 3.728C147.174 3.41867 147.862 3.264 148.63 3.264C149.068 3.264 149.489 3.312 149.894 3.408C150.3 3.49333 150.63 3.6 150.886 3.728L150.454 4.896C150.198 4.8 149.9 4.70933 149.558 4.624C149.217 4.53867 148.897 4.496 148.598 4.496C148.022 4.496 147.548 4.61867 147.174 4.864C146.801 5.10933 146.524 5.472 146.342 5.952C146.161 6.432 146.07 7.02933 146.07 7.744C146.07 8.42667 146.161 9.008 146.342 9.488C146.524 9.968 146.796 10.3307 147.158 10.576C147.521 10.8213 147.974 10.944 148.518 10.944C148.988 10.944 149.398 10.896 149.75 10.8C150.113 10.704 150.444 10.5867 150.742 10.448V11.696C150.454 11.8453 150.134 11.9573 149.782 12.032C149.441 12.1173 149.025 12.16 148.534 12.16ZM154.19 3.424V6.992H158.846V3.424H160.254V12H158.846V8.176H154.19V12H152.782V3.424H154.19ZM164.297 8.656C164.297 8.752 164.292 8.89067 164.281 9.072C164.281 9.24267 164.276 9.42933 164.265 9.632C164.255 9.824 164.244 10.0107 164.233 10.192C164.223 10.3627 164.212 10.5013 164.201 10.608L168.793 3.424H170.521V12H169.209V6.944C169.209 6.77333 169.209 6.54933 169.209 6.272C169.22 5.99467 169.231 5.72267 169.241 5.456C169.252 5.17867 169.263 4.97067 169.273 4.832L164.713 12H162.969V3.424H164.297V8.656ZM179.171 4.608H176.371V12H174.979V4.608H172.211V3.424H179.171V4.608ZM184.016 3.264C184.752 3.264 185.381 3.424 185.904 3.744C186.437 4.064 186.842 4.51733 187.12 5.104C187.408 5.68 187.552 6.35733 187.552 7.136V7.984H181.68C181.701 8.95467 181.946 9.696 182.416 10.208C182.896 10.7093 183.562 10.96 184.416 10.96C184.96 10.96 185.44 10.912 185.856 10.816C186.282 10.7093 186.72 10.56 187.168 10.368V11.6C186.73 11.792 186.298 11.9307 185.872 12.016C185.445 12.112 184.938 12.16 184.352 12.16C183.541 12.16 182.821 11.9947 182.192 11.664C181.573 11.3333 181.088 10.8427 180.736 10.192C180.394 9.53067 180.224 8.72533 180.224 7.776C180.224 6.83733 180.378 6.032 180.688 5.36C181.008 4.688 181.45 4.17067 182.016 3.808C182.592 3.44533 183.258 3.264 184.016 3.264ZM184 4.416C183.328 4.416 182.794 4.63467 182.4 5.072C182.016 5.49867 181.786 6.096 181.712 6.864H186.08C186.08 6.37333 186.005 5.94667 185.856 5.584C185.706 5.22133 185.477 4.93867 185.168 4.736C184.869 4.52267 184.48 4.416 184 4.416ZM193.175 12.16C192.418 12.16 191.74 12.0053 191.143 11.696C190.556 11.3867 190.092 10.9067 189.751 10.256C189.42 9.60533 189.255 8.77333 189.255 7.76C189.255 6.704 189.431 5.84533 189.783 5.184C190.135 4.52267 190.61 4.03733 191.207 3.728C191.815 3.41867 192.503 3.264 193.271 3.264C193.708 3.264 194.13 3.312 194.535 3.408C194.94 3.49333 195.271 3.6 195.527 3.728L195.095 4.896C194.839 4.8 194.54 4.70933 194.199 4.624C193.858 4.53867 193.538 4.496 193.239 4.496C192.663 4.496 192.188 4.61867 191.815 4.864C191.442 5.10933 191.164 5.472 190.983 5.952C190.802 6.432 190.711 7.02933 190.711 7.744C190.711 8.42667 190.802 9.008 190.983 9.488C191.164 9.968 191.436 10.3307 191.799 10.576C192.162 10.8213 192.615 10.944 193.159 10.944C193.628 10.944 194.039 10.896 194.391 10.8C194.754 10.704 195.084 10.5867 195.383 10.448V11.696C195.095 11.8453 194.775 11.9573 194.423 12.032C194.082 12.1173 193.666 12.16 193.175 12.16ZM201.375 6.944C202.121 6.944 202.74 7.03467 203.231 7.216C203.721 7.39733 204.089 7.66933 204.335 8.032C204.591 8.384 204.719 8.832 204.719 9.376C204.719 9.90933 204.596 10.3733 204.351 10.768C204.116 11.1627 203.748 11.4667 203.247 11.68C202.745 11.8933 202.1 12 201.311 12H197.423V3.424H198.831V6.944H201.375ZM203.311 9.456C203.311 8.93333 203.124 8.58133 202.751 8.4C202.388 8.208 201.876 8.112 201.215 8.112H198.831V10.864H201.247C201.844 10.864 202.335 10.7573 202.719 10.544C203.113 10.3307 203.311 9.968 203.311 9.456ZM213.752 12.16C213.261 12.16 212.834 12.1173 212.472 12.032C212.12 11.9573 211.789 11.8453 211.48 11.696V10.48C211.8 10.608 212.146 10.72 212.52 10.816C212.893 10.912 213.314 10.96 213.784 10.96C214.338 10.96 214.818 10.864 215.224 10.672C215.629 10.4693 215.949 10.16 216.184 9.744C216.418 9.328 216.552 8.8 216.584 8.16H212.36V7.008H216.568C216.493 6.13333 216.242 5.49333 215.816 5.088C215.4 4.68267 214.786 4.48 213.976 4.48C213.666 4.48 213.325 4.52267 212.952 4.608C212.589 4.69333 212.264 4.78933 211.976 4.896L211.576 3.76C211.885 3.62133 212.253 3.504 212.68 3.408C213.106 3.312 213.533 3.264 213.96 3.264C214.76 3.264 215.464 3.41333 216.072 3.712C216.69 4.01067 217.17 4.48533 217.512 5.136C217.864 5.78667 218.04 6.64533 218.04 7.712C218.04 8.72533 217.853 9.56267 217.48 10.224C217.117 10.8853 216.61 11.376 215.96 11.696C215.32 12.0053 214.584 12.16 213.752 12.16ZM225.354 3.424H226.89L223.226 7.552L227.194 12H225.562L221.69 7.648V12H220.282V3.424H221.69V7.584L225.354 3.424ZM232.831 3.264C233.887 3.264 234.735 3.632 235.375 4.368C236.025 5.104 236.351 6.21333 236.351 7.696C236.351 8.66667 236.201 9.488 235.903 10.16C235.615 10.8213 235.204 11.3227 234.671 11.664C234.148 11.9947 233.529 12.16 232.815 12.16C232.377 12.16 231.988 12.1013 231.647 11.984C231.305 11.8667 231.012 11.7173 230.767 11.536C230.532 11.344 230.329 11.136 230.159 10.912H230.063C230.084 11.0933 230.105 11.3227 230.127 11.6C230.148 11.8773 230.159 12.1173 230.159 12.32V15.84H228.751V3.424H229.903L230.095 4.592H230.159C230.329 4.34667 230.532 4.12267 230.767 3.92C231.012 3.71733 231.3 3.55733 231.631 3.44C231.972 3.32267 232.372 3.264 232.831 3.264ZM232.575 4.448C231.999 4.448 231.535 4.56 231.183 4.784C230.831 4.99733 230.575 5.32267 230.415 5.76C230.255 6.19733 230.169 6.752 230.159 7.424V7.696C230.159 8.4 230.233 8.99733 230.383 9.488C230.532 9.97867 230.783 10.352 231.135 10.608C231.497 10.864 231.988 10.992 232.607 10.992C233.129 10.992 233.556 10.848 233.887 10.56C234.228 10.272 234.479 9.88267 234.639 9.392C234.809 8.89067 234.895 8.32 234.895 7.68C234.895 6.69867 234.703 5.91467 234.319 5.328C233.945 4.74133 233.364 4.448 232.575 4.448ZM241.842 3.28C242.888 3.28 243.661 3.50933 244.162 3.968C244.664 4.42667 244.914 5.15733 244.914 6.16V12H243.89L243.618 10.784H243.554C243.309 11.0933 243.053 11.3547 242.786 11.568C242.53 11.7707 242.232 11.92 241.89 12.016C241.56 12.112 241.154 12.16 240.674 12.16C240.162 12.16 239.698 12.0693 239.282 11.888C238.877 11.7067 238.557 11.4293 238.322 11.056C238.088 10.672 237.97 10.192 237.97 9.616C237.97 8.76267 238.306 8.10667 238.978 7.648C239.65 7.17867 240.685 6.92267 242.082 6.88L243.538 6.832V6.32C243.538 5.60533 243.384 5.10933 243.074 4.832C242.765 4.55467 242.328 4.416 241.762 4.416C241.314 4.416 240.888 4.48533 240.482 4.624C240.077 4.752 239.698 4.90133 239.346 5.072L238.914 4.016C239.288 3.81333 239.73 3.64267 240.242 3.504C240.754 3.35467 241.288 3.28 241.842 3.28ZM242.258 7.856C241.192 7.89867 240.45 8.06933 240.034 8.368C239.629 8.66667 239.426 9.088 239.426 9.632C239.426 10.112 239.57 10.464 239.858 10.688C240.157 10.912 240.536 11.024 240.994 11.024C241.72 11.024 242.322 10.8267 242.802 10.432C243.282 10.0267 243.522 9.408 243.522 8.576V7.808L242.258 7.856ZM248.971 3.424V6.992H253.627V3.424H255.035V12H253.627V8.176H248.971V12H247.563V3.424H248.971ZM260.999 3.28C262.044 3.28 262.817 3.50933 263.319 3.968C263.82 4.42667 264.071 5.15733 264.071 6.16V12H263.047L262.775 10.784H262.711C262.465 11.0933 262.209 11.3547 261.943 11.568C261.687 11.7707 261.388 11.92 261.047 12.016C260.716 12.112 260.311 12.16 259.831 12.16C259.319 12.16 258.855 12.0693 258.439 11.888C258.033 11.7067 257.713 11.4293 257.479 11.056C257.244 10.672 257.127 10.192 257.127 9.616C257.127 8.76267 257.463 8.10667 258.135 7.648C258.807 7.17867 259.841 6.92267 261.239 6.88L262.695 6.832V6.32C262.695 5.60533 262.54 5.10933 262.231 4.832C261.921 4.55467 261.484 4.416 260.919 4.416C260.471 4.416 260.044 4.48533 259.639 4.624C259.233 4.752 258.855 4.90133 258.503 5.072L258.071 4.016C258.444 3.81333 258.887 3.64267 259.399 3.504C259.911 3.35467 260.444 3.28 260.999 3.28ZM261.415 7.856C260.348 7.89867 259.607 8.06933 259.191 8.368C258.785 8.66667 258.583 9.088 258.583 9.632C258.583 10.112 258.727 10.464 259.015 10.688C259.313 10.912 259.692 11.024 260.151 11.024C260.876 11.024 261.479 10.8267 261.959 10.432C262.439 10.0267 262.679 9.408 262.679 8.576V7.808L261.415 7.856Z" fill="white"/>
</svg>
